# xmcd
#
# Track frame offsets:
#	150
#	21041
#	41376
#	52020
#	65573
#	82264
#	102612
#	116316
#	132502
#	147101
#	166352
#	180925
#	198490
#	218001
#	235743
#	251820
#
# Disc length: 3555 seconds
#
# Revision: 0
# Processed by: cddbd v1.5.1PL2 Copyright (c) Steve Scherf et al.
# Submitted via: audiograbber 1.83.01
#
DISCID=e40de110
DTITLE=Vários - New Wave Mançur
DYEAR=1900
DGENRE=
TTITLE0=Gilberto Gil - Nao Chore Mais (No Woman, No cry)
TTITLE1=Leo Jaime - Sonia
TTITLE2=Ricardo Graça Melo - Derepente Califórnia
TTITLE3=Rádio Taxi - Com o Rádio Ligado
TTITLE4=Espirito da Coisa - Ligeiramente Grávida
TTITLE5=Plebe Rude - Até Quando Esperar
TTITLE6=Biquini Cavadão - Tédio
TTITLE7=Titãs - Homem Primata
TTITLE8=Grafite - Mamma Maria
TTITLE9=Lulu Santos - O Último Romântico
TTITLE10=Inimigos do Rei - Uma Barata Chamada Kafka
TTITLE11=João Penca - Pop Star
TTITLE12=Legião Urbana - Indios
TTITLE13=Leo Jaime - As Sete Vampiras
TTITLE14=Garotos da Rua - Tô de saco cheio
TTITLE15=Ira! - Envelheço na Cidade
EXTD=
EXTT0=
EXTT1=
EXTT2=
EXTT3=
EXTT4=
EXTT5=
EXTT6=
EXTT7=
EXTT8=
EXTT9=
EXTT10=
EXTT11=
EXTT12=
EXTT13=
EXTT14=
EXTT15=
PLAYORDER=
